<mxfile host="app.diagrams.net" modified="2024-03-01T14:08:29.002Z" agent="Mozilla/5.0 (Macintosh; Intel Mac OS X 10_15_7) AppleWebKit/537.36 (KHTML, like Gecko) Chrome/121.0.0.0 Safari/537.36" version="24.0.0" etag="kMWoie_BLMW4082GofSR" type="github">
  <diagram name="Page-1" id="IYn6t0XkIuUYXRooa3QI">
    <mxGraphModel>
      <root>
        <mxCell id="0" />
        <mxCell id="1" parent="0" />
      </root>
    </mxGraphModel>
  </diagram>
</mxfile>
